<svg version="1" xmlns="http://www.w3.org/2000/svg" width="666.667" height="666.667" viewBox="0 0 500.000000 500.000000"><path d="M320.1 88.8c15.1 15.8 34.7 45.9 48.3 74.2 11.1 23.4 19 48.5 25 80 4.2 22 4.9 27.2 5.5 43.4l.6 16 7.4-15.5c18.9-39.5 32.7-71.8 44.1-102.9 3.2-8.8 10.4-30 11.8-35 6.2-21.2 8.5-29.9 10.7-38.9 1.4-5.8 2.9-12.2 3.5-14.1.5-1.9 1.2-5.9 1.6-8.8l.7-5.2H313.5l6.6 6.8zM21.6 160.2c.4.7 6.8 10.2 14.1 21.1L49 201.1v15.2c0 8.4.4 15.8.8 16.5.6.9 3.6 1.2 11.3 1l10.4-.3.5-16 .5-16 14.3-21.3L101 159H76.4l-7 12c-3.9 6.8-7.5 12-8.4 12-.9 0-4.5-5-8.6-11.8l-7-11.7-12.3-.3c-9.7-.2-12.1 0-11.5 1zM299.4 160.4c-.3.7-.4 3.8-.2 6.7l.3 5.4h20l.3-6.8.3-6.7H310c-7.6 0-10.2.3-10.6 1.4z"/><path d="M335.2 196.2l.3 37.3h19v-74l-9.8-.3-9.7-.3.2 37.3zM111.6 181.4c-10.5 5.2-15.8 13.7-15.7 25.6 0 13.6 7.7 23.7 20.3 26.8 10.5 2.6 24.5.7 31.7-4.2 3.5-2.4 8.7-8.4 7.9-9-.1-.2-4.3-.8-9.1-1.5-8.8-1.2-8.8-1.2-11.8 1.4-3.9 3.2-10.4 3.4-14.1.5-2.8-2.1-5.5-7.6-4.4-8.8.4-.4 9.2-.8 19.4-.8 10.3-.1 19.6-.2 20.6-.3 1.7-.1 1.8-.7 1.3-6.7-.8-8.3-3.7-14.4-8.9-18.8-5.8-5-11.4-6.6-22.7-6.6-8 .1-10.4.4-14.5 2.4zm23.4 12.8c1.1 1.8 2 4.3 2 5.5 0 2.2-.3 2.3-10.5 2.3-5.8 0-10.5-.4-10.5-.9 0-2.1 3.1-8.1 4.7-9 1-.6 4.2-1.1 7.1-1.1 4.8 0 5.4.2 7.2 3.2zM182.5 181.4c-12.8 5.8-19.3 19.9-15.5 33.7 5.5 19.7 35 26.6 51.2 12 12.4-11.1 13-28 1.3-39.7-6.4-6.5-11.9-8.4-23.4-8.3-6.7 0-9.7.5-13.6 2.3zm21.5 14.2c2.3 2.3 2.5 3.2 2.5 11.5 0 8.7-.1 9.2-2.8 11.5-2.8 2.4-8.4 3.2-12.2 1.8-4.7-1.8-7.1-14.7-4-22 2.6-6.4 11.4-7.9 16.5-2.8zM231.3 179.8c-2.6.4-2.7.6-1.3 3 .5.9 3.7 8.4 7.1 16.7 3.4 8.2 8 19.3 10.3 24.5l4.2 9.5 7.9.3c4.4.1 8.5-.1 9.1-.5.9-.7 8.7-18.4 19-43.1l4.2-10.2-4.6-.1c-12.1-.2-14.4-.1-15.1.7-.5.5-2.7 7-5 14.4s-4.4 14.1-4.6 14.7c-1 3.1-3.3 1-4.9-4.5-1-3.1-2.1-6.8-2.6-8.2-.4-1.4-1.8-5.7-3.1-9.7l-2.2-7.2-8.1-.3c-4.5-.2-9.1-.2-10.3 0zM304.5 180l-5 .5-.3 25.4c-.2 18.2.1 25.7.9 26.8.9 1 3.4 1.3 10.3 1.1l9.1-.3.3-26.8.2-26.7-3.2-.1c-1.8 0-4.2-.1-5.3-.2-1.1-.1-4.2 0-7 .3zM127 246.7c-11.2 5.8-15.8 19.2-11.5 33.8 3 10.4 11 16.6 21.8 16.7 9.6.1 17.2-4.6 20.7-13.1 1.4-3.6 1.4-3.7-2-4.6-2.2-.5-2.8-.1-4.5 3.7-2.6 5.5-6.2 8-12.4 8.6-3.8.3-6-.1-9.5-1.7-6.4-3.2-8.7-8.2-8.7-19.3 0-12.6 2.5-17.2 10.7-20.4 8-3 16-.5 19.1 6.1 1.4 3 2 3.4 4.2 2.8 1.4-.3 2.8-.8 3.1-1 1.1-1-4.1-8-7.9-10.8-3.5-2.4-5.4-3-10.9-3.3-5.7-.2-7.5.1-12.2 2.5zM225.8 245.1c-1.2.7-1.4 4.7-1.3 25.6.1 13.6.3 25.2.3 25.6.1.5 1.4.7 3 .5l2.7-.3.3-25.6c.2-24.4.1-25.7-1.6-26.1-1.1-.3-2.6-.2-3.4.3zM208.2 270.7l.3 25.8 2.8.3 2.7.3V245h-6l.2 25.7zM178.2 259c-5.5 1.3-10.9 7.4-12.2 13.7-2.8 13.4 4.8 24.4 17 24.5 8.8 0 15.1-5.5 17-14.8 2.2-10.7-3.2-20.7-12.7-23.3-4.2-1.2-4.5-1.2-9.1-.1zm9.2 5c5.3 2 8.2 11.1 6 19.5-1.6 6.5-4.2 8.5-10.8 8.5-4.3 0-5.7-.4-7.7-2.6-2.1-2.2-2.4-3.7-2.7-10.7-.3-7.3-.1-8.5 1.8-11 3.5-4.4 8.2-5.7 13.4-3.7zM250.7 259.4c-5.1 1.9-7.6 4.2-9.9 9.4-4.1 9.2-1.4 20.8 6.1 25.8 7.8 5.1 19.1 2.9 24-4.8 2.3-3.7 2-4.8-1.4-4.8-1.7 0-2.9.9-3.9 2.9-1.8 3.4-3.3 4.1-9.5 4.1-5.7 0-8.6-1.9-10.1-6.5-2-6.1-1.5-6.3 11.7-6.1 16 .2 15.6.4 15.1-5.5-1.1-10.8-12.2-18.1-22.1-14.5zm10.7 5c3 1.2 5.6 5.3 5.6 8.7 0 .5-4.7.9-10.5.9-9.9 0-10.5-.1-10.5-2.1 0-3 1.7-5.7 4.8-7.3 3.4-1.9 6.4-2 10.6-.2zM291.7 258.7c-1.6.3-4.6 2.2-6.7 4.3-6.4 6.4-7.7 14.9-3.5 23.7 4 8.6 11.5 12 18.8 8.4 2.4-1.2 4.6-2.1 5-2.1 1.1 0 .8 7-.5 9.3-1.9 3.6-4 4.6-9.5 4.7-4 0-5.8-.5-7.3-2-1.1-1.1-2-2.5-2-3 0-.6-1.4-1-3-1-3 0-3 0-1.7 3.2 1.9 5 8.6 8.1 15.6 7.4 5.8-.5 9.1-2.4 12.5-7 1.9-2.5 2.1-4.4 2.4-24.2l.3-21.4h-2.5c-1.6 0-2.6.6-2.6 1.4 0 1.6-3.3 1.4-5.4-.2-1.5-1.3-6.5-2-9.9-1.5zm8.7 5.4c4.2 2 5.9 6.5 5.5 15.2-.5 9.8-2.3 12-9.9 12.1-4.4.1-5.5-.3-7.5-2.6-4.4-5.1-4.2-19.1.2-23 3.4-2.9 7.6-3.5 11.7-1.7zM333.2 259c-9.3 2.2-14.8 13.3-12.3 24.5 1.9 8.2 8.7 13.7 17.1 13.7 5.5 0 9.8-2 13.4-6.2 3.4-4.1 3.4-6-.1-6-2 .1-3.4 1-4.8 3.3-1.9 3-2.5 3.2-8.1 3.5-5.8.3-6.3.1-8.8-2.8-1.6-2-2.6-4.4-2.6-6.4v-3.2l11.8.1c15 .1 15.8-.1 15.3-5.1-.9-10.8-10.6-18-20.9-15.4zm9.8 5.5c3.3 1.7 5 4.3 5 7.4 0 2-.6 2.1-10.5 2.1-11.4 0-11.7-.2-9.3-5.6 2.2-4.8 9.4-6.7 14.8-3.9zM383.7 266c-8.9 23.7-26.5 47.7-43.9 59.7-12.7 8.8-29.4 16.4-39.4 17.9-2.4.3-4.4 1-4.4 1.4 0 .5 2.8 3.9 6.3 7.7 8.1 9 52 58.1 57.3 64.2 2.9 3.3 18.3-32.7 22.9-53.7 5.9-26.8 5.9-26.8 5.9-60.7 0-17.6-.5-34.7-1-38l-.9-6-2.8 7.5z"/></svg>